HIERARCHY
ROOT Hips
{
	OFFSET 0.00000 0.00000 0.00000
	CHANNELS 6 Xposition Yposition Zposition Zrotation Yrotation Xrotation 
	JOINT LHipJoint
	{
		OFFSET 0 0 0
		CHANNELS 3 Zrotation Yrotation Xrotation
		JOINT LeftHip
		{
			OFFSET 1.88772 -1.62769 0.85636
			CHANNELS 3 Zrotation Yrotation Xrotation
			JOINT LeftKnee
			{
				OFFSET 2.39836 -6.58946 0.00000
				CHANNELS 3 Zrotation Yrotation Xrotation
				JOINT LeftAnkle
				{
					OFFSET 2.78523 -7.65237 0.00000
					CHANNELS 3 Zrotation Yrotation Xrotation
					JOINT LeftToe
					{
						OFFSET 0.19551 -0.53715 1.90694
						CHANNELS 3 Zrotation Yrotation Xrotation
						End Site
						{
							OFFSET 0.00000 -0.00000 0.99735
						}
					}
				}
			}
		}
	}
	JOINT RHipJoint
	{
		OFFSET 0 0 0
		CHANNELS 3 Zrotation Yrotation Xrotation
		JOINT RightHip
		{
			OFFSET -1.74282 -1.62769 0.85636
			CHANNELS 3 Zrotation Yrotation Xrotation
			JOINT RightKnee
			{
				OFFSET -2.36062 -6.48575 0.00000
				CHANNELS 3 Zrotation Yrotation Xrotation
				JOINT RightAnkle
				{
					OFFSET -2.76258 -7.59014 0.00000
					CHANNELS 3 Zrotation Yrotation Xrotation
					JOINT RightToe
					{
						OFFSET -0.19308 -0.53048 2.03952
						CHANNELS 3 Zrotation Yrotation Xrotation
						End Site
						{
							OFFSET -0.00000 -0.00000 1.06031
						}
					}
				}
			}
		}
	}
	JOINT lowerback
	{
		OFFSET 0 0 0
		CHANNELS 3 Zrotation Yrotation Xrotation
		JOINT Chest
		{
			OFFSET -0.08299 2.03160 -0.30721
			CHANNELS 3 Zrotation Yrotation Xrotation
			JOINT Chest2
			{
				OFFSET -0.01030 2.00603 0.13891
				CHANNELS 3 Zrotation Yrotation Xrotation
				JOINT lowerneck
				{
					OFFSET 0 0 0
					CHANNELS 3 Zrotation Yrotation Xrotation
					JOINT Neck
					{
						OFFSET 0.04282 1.69578 0.19991
						CHANNELS 3 Zrotation Yrotation Xrotation
						JOINT Head
						{
							OFFSET -0.08665 1.66622 -0.03785
							CHANNELS 3 Zrotation Yrotation Xrotation
							End Site
							{
								OFFSET -0.03699 1.83329 -0.04094
							}
						}
					}
				}
				JOINT LeftCollar
				{
					OFFSET 0 0 0
					CHANNELS 3 Zrotation Yrotation Xrotation
					JOINT LeftShoulder
					{
						OFFSET 3.04219 1.50803 -0.05347
CHANNELS 3 Zrotation Xrotation Yrotation
						JOINT LeftElbow
						{
OFFSET 0 -5.791990 0.000000
CHANNELS 3 Zrotation Xrotation Yrotation
							JOINT LeftWrist
							{
OFFSET 0 -3.499080 0.000000
CHANNELS 3 Zrotation Xrotation Yrotation
								JOINT lhand
								{
									OFFSET 0 0 0
CHANNELS 3 Zrotation Xrotation Yrotation
									JOINT LFingers
									{
OFFSET 0 -0.593860 0.000000
CHANNELS 3 Zrotation Xrotation Yrotation
										End Site
										{
OFFSET 0 -0.478790 0.000000
										}
									}
								}
								JOINT LThumb
								{
OFFSET 0 0.000000 0.000000
CHANNELS 3 Zrotation Xrotation Yrotation
									End Site
									{
OFFSET 0 -0.486100 0.486100
									}
								}
							}
						}
					}
				}
				JOINT RightCollar
				{
					OFFSET 0 0 0
					CHANNELS 3 Zrotation Yrotation Xrotation
					JOINT RightShoulder
					{
						OFFSET -3.30316 1.18853 0.11175
CHANNELS 3 Zrotation Xrotation Yrotation
						JOINT RightElbow
						{
OFFSET 0 -5.737990 0.000000
CHANNELS 3 Zrotation Xrotation Yrotation
							JOINT RightWrist
							{
OFFSET 0 -3.579160 -0.000000
CHANNELS 3 Zrotation Xrotation Yrotation
								JOINT rhand
								{
									OFFSET 0 0 0
CHANNELS 3 Zrotation Xrotation Yrotation
									JOINT RFingers
									{
OFFSET 0 -0.615580 0.000000
CHANNELS 3 Zrotation Xrotation Yrotation
										End Site
										{
OFFSET 0 -0.496290 0.000000
										}
									}
								}
								JOINT RThumb
								{
OFFSET 0 0.000000 0.000000
CHANNELS 3 Zrotation Xrotation Yrotation
									End Site
									{
OFFSET 0 -0.503870 0.503870
									}
								}
							}
						}
					}
				}
			}
		}
	}
}
MOTION
Frames: 7
Frame Time: 0.008333333333333333
8.615600 17.130000 -16.744900 2.854000 -22.864500 5.611100 0.000000 0.000000 0.000000 -13.308200 -10.016400 -15.722900 2.850000 10.448100 30.440400 1.591600 5.292400 -26.241200 0.173600 -2.683600 -7.399200 0.000000 0.000000 0.000000 17.365200 16.346100 -13.906000 -2.984800 -10.670400 31.176300 -1.023900 -11.945300 -26.856700 -0.022300 0.964300 -2.650700 -3.737200 -1.247600 1.791500 1.247700 -1.780400 -3.475400 3.486600 -0.736600 -4.446400 0.314000 -2.591700 -5.991900 -3.912600 -3.257000 5.039600 -1.443500 -1.746800 2.571700 -0.000000 0.000000 0.000000 8.750700 10.865400 -23.343700 22.589300 -33.636600 6.909400 8.264800 -19.544600 22.355600 0.000000 0.000000 0.000000 -7.125000 0.000000 0.000000 -12.921200 7.873400 -11.329000 -0.000000 0.000000 0.000000 -10.728300 16.770200 27.078600 -20.049700 -30.702200 -5.556700 -19.505600 4.343700 29.330200 0.000000 0.000000 0.000000 7.125000 0.000000 -0.000000 13.340400 60.282500 -5.025600
8.793376 17.157276 -16.672851 2.384862 -22.453362 5.413255 0.000000 0.000000 0.000000 -13.457380 -10.199968 -15.677422 2.979886 10.662483 31.149722 1.808468 3.596262 -26.903281 0.038606 -1.250551 -3.438804 0.000000 0.000000 0.000000 17.433260 16.964385 -12.626674 -2.834686 -10.422577 30.356256 -0.854172 -13.573219 -27.115807 -0.074724 1.748436 -4.811179 -3.986069 -1.053362 2.088327 0.815830 -1.563215 -3.618670 3.176698 -0.617182 -4.790384 0.826465 -2.493435 -6.379226 -4.664450 -3.086937 6.112242 -1.806671 -1.692912 2.997631 0.000000 0.000000 0.000000 9.834833 10.037279 -24.463433 24.126562 -35.297715 7.779644 7.207018 -20.065854 23.138858 0.000000 0.000000 0.000000 -7.125000 0.000000 0.000000 -13.577838 7.204867 -12.122373 0.000000 0.000000 0.000000 -9.571395 17.795758 29.778858 -21.949411 -32.919764 -6.558390 -19.602118 4.472868 29.016460 0.000000 0.000000 0.000000 7.125000 0.000000 0.000000 13.035990 59.995365 -4.821493
8.949329 17.122921 -16.631809 2.444987 -22.387944 4.722812 0.000000 0.000000 0.000000 -14.249636 -9.767776 -14.823210 2.940742 10.598525 30.937529 1.801449 2.806180 -26.494522 0.038680 -1.112256 -3.059538 0.000000 0.000000 0.000000 17.018589 17.159353 -12.251312 -2.974878 -10.654244 31.122499 -0.833696 -13.969842 -27.357218 -0.129488 2.312177 -6.369497 -4.725631 -0.817796 2.439572 0.288373 -1.315551 -3.384605 3.033818 -0.481322 -4.765934 0.897640 -2.535773 -6.060301 -4.530482 -3.178274 5.533018 -1.757389 -1.722039 2.737887 0.000000 0.000000 0.000000 10.727547 10.069170 -24.621340 25.015021 -36.219272 8.298805 8.813528 -21.815358 22.980092 0.000000 0.000000 0.000000 -7.125000 0.000000 0.000000 -12.587558 7.208970 -11.188667 0.000000 0.000000 0.000000 -9.401944 17.130718 33.300105 -23.975817 -35.138144 -7.692836 -18.496094 2.634148 28.240535 0.000000 0.000000 0.000000 7.125000 0.000000 0.000000 13.753320 58.974322 -4.754076
9.067784 17.121421 -16.590008 2.356857 -22.812667 4.634269 0.000000 0.000000 0.000000 -14.665787 -9.951213 -14.921675 3.051799 10.778332 31.535997 1.889455 3.007470 -27.190319 0.074084 -1.745360 -4.802574 0.000000 0.000000 0.000000 16.681931 17.346143 -11.696574 -2.827328 -10.410186 30.315422 -0.911996 -13.585919 -27.557901 -0.027282 1.066481 -2.931751 -5.209065 -0.717895 2.342532 -0.008740 -1.219025 -3.557969 2.990117 -0.415461 -4.900959 0.829250 -2.413357 -6.108848 -4.207314 -3.018929 5.845487 -1.640695 -1.636133 2.861961 0.000000 0.000000 0.000000 11.298626 10.828396 -23.085057 23.275728 -34.388938 7.293479 9.395868 -21.739736 23.347657 0.000000 0.000000 0.000000 -7.125000 0.000000 0.000000 -12.233815 6.789798 -10.960784 0.000000 0.000000 0.000000 -10.176861 17.363454 37.274700 -26.292840 -37.496380 -9.065330 -19.024254 1.754843 27.238635 0.000000 0.000000 0.000000 7.125000 0.000000 0.000000 12.601515 58.103037 -4.082422
9.148366 17.167714 -16.541609 2.601821 -23.201801 4.517255 0.000000 0.000000 0.000000 -15.492904 -11.319175 -13.983739 2.942397 10.601260 30.946536 1.980581 5.320134 -28.919587 0.208200 -2.937373 -8.104418 0.000000 0.000000 0.000000 16.200206 18.063294 -11.062265 -2.734579 -10.252490 29.798215 -0.937054 -13.918442 -28.062709 -0.029634 1.111699 -3.056169 -5.501329 -0.790333 1.894658 -0.285806 -1.322441 -3.768484 2.865366 -0.460012 -4.859475 0.639715 -2.162968 -5.637164 -3.972641 -2.692360 5.582958 -1.501728 -1.463105 2.697779 0.000000 0.000000 0.000000 11.231677 11.414308 -19.566013 19.670416 -30.242980 5.364466 9.351698 -20.386258 23.359098 0.000000 0.000000 0.000000 -7.125000 0.000000 0.000000 -12.260946 6.783029 -10.988472 0.000000 0.000000 0.000000 -10.744296 16.799351 39.400085 -26.786827 -37.975097 -9.367714 -18.181615 0.886489 25.686103 0.000000 0.000000 0.000000 7.125000 0.000000 0.000000 12.659338 56.379909 -3.572925
9.201682 17.183258 -16.515690 3.120046 -23.360745 4.546245 0.000000 0.000000 0.000000 -16.370006 -11.803187 -13.793503 2.873708 10.487772 30.571236 1.833263 7.136720 -28.976284 0.445018 -4.274474 -11.851037 0.000000 0.000000 0.000000 15.472108 18.823257 -10.910437 -2.685810 -10.168235 29.523192 -0.844945 -14.746167 -28.223181 -0.055123 1.503308 -4.135128 -5.813494 -0.676059 1.569931 -0.583655 -1.182940 -3.955464 2.718343 -0.381874 -4.886233 0.286172 -2.306644 -6.199695 -3.692142 -2.853879 6.117734 -1.376979 -1.551130 2.988216 0.000000 0.000000 0.000000 10.979742 12.038622 -15.436776 16.921166 -26.753444 4.051968 7.497118 -18.316668 20.935114 0.000000 0.000000 0.000000 -7.125000 0.000000 0.000000 -13.401877 9.330165 -11.375435 0.000000 0.000000 0.000000 -10.944175 16.752824 38.609222 -26.823005 -38.009234 -9.390168 -16.079247 3.587534 28.947603 0.000000 0.000000 0.000000 7.125000 0.000000 0.000000 16.811201 59.101517 -5.930312
9.230801 17.174535 -16.506683 2.900846 -22.958911 4.551079 0.000000 0.000000 0.000000 -16.068726 -11.776650 -14.009764 2.951253 10.615750 30.994623 2.026594 4.922491 -29.013234 0.189759 -2.797635 -7.716259 0.000000 0.000000 0.000000 15.641469 18.620490 -10.591560 -2.622483 -10.057272 29.162321 -0.727162 -15.225403 -27.865024 -0.073596 1.748334 -4.810543 -5.843633 -0.765779 1.828220 -0.511076 -1.314859 -3.869219 2.821792 -0.444517 -4.928999 0.490335 -2.424629 -6.008863 -3.344105 -3.064850 5.687245 -1.295301 -1.632878 2.802002 0.000000 0.000000 0.000000 10.808262 12.490342 -12.940224 15.546506 -24.901855 3.452822 7.011218 -15.962076 20.339968 0.000000 0.000000 0.000000 -7.125000 0.000000 0.000000 -13.713692 9.950506 -11.480339 0.000000 0.000000 0.000000 -11.138148 16.840606 39.183306 -25.697581 -36.908430 -8.705350 -18.277136 1.309722 26.534796 0.000000 0.000000 0.000000 7.125000 0.000000 0.000000 13.005133 57.242435 -3.945112
